<?xml version="1.0" encoding="UTF-8" standalone="no"?>
<!-- Created with Inkscape (http://www.inkscape.org/) -->

<svg
   width="1500"
   height="1500"
   viewBox="0 0 396.87499 396.87501"
   version="1.1"
   id="svg8"
   xmlns="http://www.w3.org/2000/svg"
   xmlns:svg="http://www.w3.org/2000/svg"
   xmlns:rdf="http://www.w3.org/1999/02/22-rdf-syntax-ns#"
   xmlns:cc="http://creativecommons.org/ns#"
   xmlns:dc="http://purl.org/dc/elements/1.1/">
  <defs
     id="defs2">
    <clipPath
       clipPathUnits="userSpaceOnUse"
       id="clipPath1248">
      <path
         d="M 25.602,139.723 H 864 V 734.996 H 25.602 Z"
         id="path1246" />
    </clipPath>
    <clipPath
       clipPathUnits="userSpaceOnUse"
       id="clipPath1258">
      <path
         d="M 25,139 H 864 V 735 H 25 Z"
         id="path1256" />
    </clipPath>
  </defs>
  <metadata
     id="metadata5">
    <rdf:RDF>
      <cc:Work
         rdf:about="">
        <dc:format>image/svg+xml</dc:format>
        <dc:type
           rdf:resource="http://purl.org/dc/dcmitype/StillImage" />
      </cc:Work>
    </rdf:RDF>
  </metadata>
  <g
     id="layer1"
     transform="translate(0,99.875017)">
    <path
       id="path7266"
       style="fill:#1a1a1a;fill-opacity:1;fill-rule:nonzero;stroke:none;stroke-width:0.35277778"
       d="M 139.42802,0.84428412 C 125.28092,6.0297646 115.70653,24.196409 115.80849,45.655175 c 0.13229,27.029127 15.3924,50.173113 34.08574,51.698524 8.97784,0.733072 17.56304,-3.720747 23.86753,-12.381442 6.30308,-8.659636 9.8104,-20.818121 9.7469,-33.799285 -0.0593,-12.979753 -3.69041,-25.718205 -10.08451,-35.414302 -6.3941,-9.6943332 -15.02904,-15.55256086 -24.00688,-16.28281085 -1.12712,-0.0896056 -2.25319,-0.104775 -3.37467,-0.0289278 -2.24614,0.14181666 -4.46229,0.61312776 -6.61458,1.40017496 z M 217.57923,0.23785914 C 201.98539,6.6802868 191.26271,28.038511 191.93687,51.310908 c 0.37606,12.972697 4.2926,25.005594 10.88355,33.448977 6.59412,8.443383 15.32396,12.60475 24.27146,11.570053 8.9475,-1.033639 17.37854,-7.181145 23.44032,-17.089261 6.06072,-9.906705 9.25371,-22.76228 8.87589,-35.737799 -0.72743,-25.125891 -14.46389,-44.6500244 -31.77752,-45.1654327 -1.1243,-0.030339 -2.25178,0.020814 -3.37749,0.1488722 -2.25037,0.2592917 -4.48698,0.84772499 -6.67385,1.75154164 z M 80.19557,69.422166 C 65.245553,75.419388 57.455162,96.20329 61.567492,119.12115 c 4.773436,26.60332 23.783572,46.78186 42.459978,45.073 8.97114,-0.81986 16.66346,-6.68337 21.38433,-16.29939 4.72264,-9.6132 6.08683,-22.19325 3.79519,-34.97051 -4.53637,-25.282876 -22.02251,-45.009503 -40.048395,-45.174956 -0.811742,-0.0081 -1.615017,0.03034 -2.414411,0.100541 -2.257073,0.205317 -4.449586,0.734484 -6.548614,1.575153 z m 95.04468,37.762394 c -16.4786,7.38505 -30.47118,32.05056 -39.12517,46.09288 -10.25525,16.6437 -30.5622,46.84078 -20.31365,63.45308 10.24996,16.61372 48.19685,7.59566 68.70065,7.56532 20.50521,-0.0303 58.65213,8.8773 68.90737,-7.76534 10.25702,-16.64371 -10.03617,-46.77869 -20.28472,-63.39241 -10.2496,-16.61371 -27.98903,-48.12947 -48.49424,-48.10054 -3.20146,0.004 -6.34048,0.77893 -9.39024,2.14701 z m 99.11433,-37.446658 c -14.12769,6.392686 -25.42505,23.749 -28.45259,43.707398 -1.94839,12.83335 -0.24377,25.37072 4.73498,34.85586 4.97876,9.48372 12.82665,15.13628 21.81578,15.71519 18.71663,1.20438 37.17396,-19.48004 41.2309,-46.20013 4.05271,-26.724327 -7.83413,-49.365251 -26.54935,-50.572457 -0.80045,-0.05115 -1.6069,-0.06068 -2.41829,-0.03034 -3.43817,0.123825 -6.93173,0.978253 -10.36143,2.530122 z" />
  </g>
</svg>
